TITLE ""
FILE "1Q_t_2058-2067.mp3" MP3
  TRACK 01 AUDIO
    TITLE "1Q_t_2058-2067_01"
    INDEX 01 00:00:00
  TRACK 02 AUDIO
    TITLE "1Q_t_2058-2067_02"
    INDEX 01 00:01:12
  TRACK 03 AUDIO
    TITLE "1Q_t_2058-2067_03"
    INDEX 01 00:01:22
  TRACK 04 AUDIO
    TITLE "1Q_t_2058-2067_04"
    INDEX 01 00:03:60
  TRACK 05 AUDIO
    TITLE "1Q_t_2058-2067_05"
    INDEX 01 00:03:67
  TRACK 06 AUDIO
    TITLE "1Q_t_2058-2067_06"
    INDEX 01 00:07:53
  TRACK 07 AUDIO
    TITLE "1Q_t_2058-2067_07"
    INDEX 01 00:08:25
  TRACK 08 AUDIO
    TITLE "1Q_t_2058-2067_08"
    INDEX 01 00:09:58
  TRACK 09 AUDIO
    TITLE "1Q_t_2058-2067_09"
    INDEX 01 00:09:66
  TRACK 10 AUDIO
    TITLE "1Q_t_2058-2067_10"
    INDEX 01 00:11:45
  TRACK 11 AUDIO
    TITLE "1Q_t_2058-2067_11"
    INDEX 01 00:11:53
  TRACK 12 AUDIO
    TITLE "1Q_t_2058-2067_12"
    INDEX 01 00:15:61
  TRACK 13 AUDIO
    TITLE "1Q_t_2058-2067_13"
    INDEX 01 00:16:33
  TRACK 14 AUDIO
    TITLE "1Q_t_2058-2067_14"
    INDEX 01 00:17:56
  TRACK 15 AUDIO
    TITLE "1Q_t_2058-2067_15"
    INDEX 01 00:17:66
  TRACK 16 AUDIO
    TITLE "1Q_t_2058-2067_16"
    INDEX 01 00:20:56
  TRACK 17 AUDIO
    TITLE "1Q_t_2058-2067_17"
    INDEX 01 00:20:66
  TRACK 18 AUDIO
    TITLE "1Q_t_2058-2067_18"
    INDEX 01 00:26:29
  TRACK 19 AUDIO
    TITLE "1Q_t_2058-2067_19"
    INDEX 01 00:26:72
  TRACK 20 AUDIO
    TITLE "1Q_t_2058-2067_20"
    INDEX 01 00:28:01
  TRACK 21 AUDIO
    TITLE "1Q_t_2058-2067_21"
    INDEX 01 00:28:14
  TRACK 22 AUDIO
    TITLE "1Q_t_2058-2067_22"
    INDEX 01 00:30:70
  TRACK 23 AUDIO
    TITLE "1Q_t_2058-2067_23"
    INDEX 01 00:31:05
  TRACK 24 AUDIO
    TITLE "1Q_t_2058-2067_24"
    INDEX 01 00:35:38
  TRACK 25 AUDIO
    TITLE "1Q_t_2058-2067_25"
    INDEX 01 00:36:10
  TRACK 26 AUDIO
    TITLE "1Q_t_2058-2067_26"
    INDEX 01 00:37:23
  TRACK 27 AUDIO
    TITLE "1Q_t_2058-2067_27"
    INDEX 01 00:37:35
  TRACK 28 AUDIO
    TITLE "1Q_t_2058-2067_28"
    INDEX 01 00:39:67
  TRACK 29 AUDIO
    TITLE "1Q_t_2058-2067_29"
    INDEX 01 00:40:00
  TRACK 30 AUDIO
    TITLE "1Q_t_2058-2067_30"
    INDEX 01 00:44:72
  TRACK 31 AUDIO
    TITLE "1Q_t_2058-2067_31"
    INDEX 01 00:45:44
  TRACK 32 AUDIO
    TITLE "1Q_t_2058-2067_32"
    INDEX 01 00:46:63
  TRACK 33 AUDIO
    TITLE "1Q_t_2058-2067_33"
    INDEX 01 00:46:73
  TRACK 34 AUDIO
    TITLE "1Q_t_2058-2067_34"
    INDEX 01 00:49:26
  TRACK 35 AUDIO
    TITLE "1Q_t_2058-2067_35"
    INDEX 01 00:49:34
  TRACK 36 AUDIO
    TITLE "1Q_t_2058-2067_36"
    INDEX 01 00:53:07
  TRACK 37 AUDIO
    TITLE "1Q_t_2058-2067_37"
    INDEX 01 00:53:57
  TRACK 38 AUDIO
    TITLE "1Q_t_2058-2067_38"
    INDEX 01 00:55:03
  TRACK 39 AUDIO
    TITLE "1Q_t_2058-2067_39"
    INDEX 01 00:55:13
  TRACK 40 AUDIO
    TITLE "1Q_t_2058-2067_40"
    INDEX 01 00:57:40
  TRACK 41 AUDIO
    TITLE "1Q_t_2058-2067_41"
    INDEX 01 00:57:49
  TRACK 42 AUDIO
    TITLE "1Q_t_2058-2067_42"
    INDEX 01 01:02:62
  TRACK 43 AUDIO
    TITLE "1Q_t_2058-2067_43"
    INDEX 01 01:03:32
  TRACK 44 AUDIO
    TITLE "1Q_t_2058-2067_44"
    INDEX 01 01:04:48
  TRACK 45 AUDIO
    TITLE "1Q_t_2058-2067_45"
    INDEX 01 01:04:55
  TRACK 46 AUDIO
    TITLE "1Q_t_2058-2067_46"
    INDEX 01 01:08:39
  TRACK 47 AUDIO
    TITLE "1Q_t_2058-2067_47"
    INDEX 01 01:08:47
  TRACK 48 AUDIO
    TITLE "1Q_t_2058-2067_48"
    INDEX 01 01:14:01
  TRACK 49 AUDIO
    TITLE "1Q_t_2058-2067_49"
    INDEX 01 01:14:46
  TRACK 50 AUDIO
    TITLE "1Q_t_2058-2067_50"
    INDEX 01 01:15:59
  TRACK 51 AUDIO
    TITLE "1Q_t_2058-2067_51"
    INDEX 01 01:15:69
  TRACK 52 AUDIO
    TITLE "1Q_t_2058-2067_52"
    INDEX 01 01:19:12
  TRACK 53 AUDIO
    TITLE "1Q_t_2058-2067_53"
    INDEX 01 01:19:22
  TRACK 54 AUDIO
    TITLE "1Q_t_2058-2067_54"
    INDEX 01 01:23:17
  TRACK 55 AUDIO
    TITLE "1Q_t_2058-2067_55"
    INDEX 01 01:23:66
  TRACK 56 AUDIO
    TITLE "1Q_t_2058-2067_56"
    INDEX 01 01:25:18
  TRACK 57 AUDIO
    TITLE "1Q_t_2058-2067_57"
    INDEX 01 01:25:28
  TRACK 58 AUDIO
    TITLE "1Q_t_2058-2067_58"
    INDEX 01 01:28:72
  TRACK 59 AUDIO
    TITLE "1Q_t_2058-2067_59"
    INDEX 01 01:29:04
  TRACK 60 AUDIO
    TITLE "1Q_t_2058-2067_60"
    INDEX 01 01:36:59
